<svg xmlns="http://www.w3.org/2000/svg" width="21.877" height="21.53" viewBox="0 0 21.877 21.53"><defs><style>.a{fill:#fefefe;fill-rule:evenodd;}</style></defs><g transform="translate(-69 -345)"><g transform="translate(-225 -40)"><path class="a" d="M294.077,388.91l10.624,4.244-.013,13.363L294,401.9l.077-12.99Z"/><path class="a" d="M308.791,394.183l-1.517,3.55,1.055-.437v4.81l.859-.5v-4.8l1.018-.515-1.415-2.109Z"/><path class="a" d="M311.312,395.7l1.44-3.421,1.26,2.083-.926.54-.077,4.6-.746.386.026-4.656-.978.463Z"/><path class="a" d="M294.129,388.884,304.675,385l11.17,3.177-.952.4-10.245-2.955-4.929,1.847L294.9,389.27l-.772-.386Z"/><path class="a" d="M309.781,390.826l-10.019-3.4,1.235-.489,10.042,3.222,4.8-1.99-.627.9-3.691,1.624-.026,1.235-1.248.592-.052-1.273-5.44,2.418-.167.077-.052-.681,5.248-2.238Z"/><path class="a" d="M315.228,392.183l-.006-3.145.6-.881.058,12.2-11.19,6.174.013-.72,10.508-5.723.02-7.9Z"/><path class="a" d="M307,403.189l7.085-3.907a.172.172,0,0,1,.234.068h0a.172.172,0,0,1-.067.234l-7.085,3.907a.172.172,0,0,1-.234-.068h0a.174.174,0,0,1,.068-.234Z"/></g></g></svg>