<svg xmlns="http://www.w3.org/2000/svg" width="263.897" height="46.284" viewBox="0 0 263.897 46.284"><defs><style>.a{fill:#ebecec;}.b,.c{fill:#cf142b;}.c{opacity:0.34;}.d,.f{fill:none;}.d{stroke:#818386;}.e{stroke:none;}</style></defs><g transform="translate(-54 -215.187)"><rect class="a" width="251" height="34" rx="6" transform="translate(54 221)"/><path class="b" d="M451.4,92.363l16.684-4.62a4.141,4.141,0,0,0,2.888-3.529c.449-2.952,2.759-17,2.759-17l-10.057-7.323,10.057,7.323s-3.067-2.236-5.647-4.3c-3.613-2.895-8.37-6.348-11.27-2.393-3.483,4.75-9.8,12.22-13.656,17.478a9.647,9.647,0,0,0-1.559,5.151l3.028,4.242Z" transform="matrix(-0.788, 0.616, -0.616, -0.788, 702.04, 16.094)"/><path class="c" d="M451.4,92.363l16.684-4.62a4.141,4.141,0,0,0,2.888-3.529c.449-2.952,2.759-17,2.759-17l-10.057-7.323,10.057,7.323s-3.067-2.236-5.647-4.3c-3.613-2.895-8.37-6.348-11.27-2.393-3.483,4.75-9.8,12.22-13.656,17.478a9.647,9.647,0,0,0-1.559,5.151l3.028,4.242Z" transform="matrix(-0.788, 0.616, -0.616, -0.788, 697.04, 16.094)"/><g class="d" transform="translate(54 221)"><rect class="e" width="251" height="34" rx="6"/><rect class="f" x="0.5" y="0.5" width="250" height="33" rx="5.5"/></g></g></svg>