<svg xmlns="http://www.w3.org/2000/svg" width="305.593" height="105.628" viewBox="0 0 305.593 105.628"><defs><style>.a{fill:#fff;}.b,.c{fill:#cf142b;}.c{opacity:0.34;}</style></defs><g transform="translate(-4.407 -217.992)"><rect class="a" width="260" height="92" transform="translate(50 225)"/><path class="b" d="M9.681,80.322,45.412,58.809a20.6,20.6,0,0,0,7.94-9.753C56.158,42.186,69.855,9.363,70,9.189L59.366.543.67,73.026Z" transform="matrix(0.777, -0.629, 0.629, 0.777, 3.545, 261.62)"/><path class="c" d="M8.672,79.089,44.41,57.417a20.611,20.611,0,0,0,7.92-9.729C55.136,40.839,68.825,8.117,68.825,8.117l-.04-.033L59.483.553S20.728,48.45.969,72.851Z" transform="matrix(0.777, -0.629, 0.629, 0.777, 12.969, 261.828)"/></g></svg>